<svg xmlns="http://www.w3.org/2000/svg" viewBox="0 0 57.12 59.34"><defs><style>.cls-1{fill:#606161;}.cls-2{fill:#939598;}</style></defs><title>Asset 3</title><g id="Layer_2" data-name="Layer 2"><g id="Layer_1-2" data-name="Layer 1"><rect class="cls-1" x="-1.54" y="22.29" width="20.19" height="8.63" rx="4.32" ry="4.32" transform="translate(32.92 40.31) rotate(137.18)"/><rect class="cls-2" x="-1.85" y="30.46" width="20.19" height="8.63" rx="4.32" ry="4.32" transform="translate(-11.66 64.46) rotate(-132.82)"/><rect class="cls-1" x="22.34" y="46.78" width="20.19" height="8.63" rx="4.32" ry="4.32" transform="translate(90.95 66.52) rotate(137.18)"/><rect class="cls-2" x="14.17" y="46.47" width="20.19" height="8.63" rx="4.32" ry="4.32" transform="translate(45.02 -1.53) rotate(47.18)"/><rect class="cls-2" x="13.98" y="11.89" width="20.19" height="8.63" rx="4.32" ry="4.32" transform="translate(17.44 -12.04) rotate(42.82)"/><rect class="cls-1" x="22.15" y="11.58" width="20.19" height="8.63" rx="4.32" ry="4.32" transform="translate(65.82 3.06) rotate(132.82)"/><rect class="cls-1" x="38.47" y="30.62" width="20.19" height="8.63" rx="4.32" ry="4.32" transform="translate(-10.8 42.32) rotate(-42.82)"/><rect class="cls-2" x="38.78" y="22.45" width="20.19" height="8.63" rx="4.32" ry="4.32" transform="translate(35.29 -27.27) rotate(47.18)"/><circle class="cls-1" cx="18.65" cy="31.01" r="3.3"/><circle class="cls-1" cx="38.88" cy="31.01" r="3.3"/><circle class="cls-1" cx="29.13" cy="39.69" r="3.3"/><circle class="cls-1" cx="43.92" cy="3.3" r="3.3"/></g></g></svg>